<?xml version="1.0" encoding="UTF-8"?>
<svg id="Livello_2" data-name="Livello 2" xmlns="http://www.w3.org/2000/svg" viewBox="0 0 298.98 306.17">
  <defs>
    <style>
      .cls-1 {
        fill: #fff;
      }
    </style>
  </defs>
  <g id="Livello_1-2" data-name="Livello 1">
    <path class="cls-1" d="M208.61,227.61c-5.2-4.1-9.05-9.71-10.85-16.09-4.01-14.26.63-37.11,56.27-55.12,38.03-12.31,46.84-32.21,44.63-50.78,0,0,0,0,0,0-5.49-16.85-13.82-32.4-24.43-46.11h0C246.24,23.3,202.38,0,153.09,0,68.47,0-.12,68.66,0,153.31c.12,84.72,68.64,153.01,153.36,152.87,22.53-.04,43.93-4.95,63.18-13.73.01,0,.02-.01.03-.02,37.72-24.55,3.47-55.79-7.96-64.82ZM72.27,210.15c-9.67,10.04-25.73,10.04-35.4,0-9.12-9.46-9.12-24.62,0-34.08,9.67-10.04,25.73-10.04,35.4,0,9.12,9.46,9.12,24.62,0,34.08ZM55.75,136.23c-13.94.26-25.29-11.09-25.03-25.03.25-13.14,10.96-23.85,24.1-24.1,13.94-.26,25.29,11.09,25.03,25.03-.25,13.14-10.96,23.85-24.1,24.1ZM112.13,275.77c-13.94.26-25.29-11.09-25.03-25.03.25-13.14,10.96-23.85,24.1-24.1,13.94-.26,25.29,11.09,25.03,25.03-.25,13.14-10.96,23.85-24.1,24.1ZM131.07,71.61c-9.67,10.04-25.73,10.04-35.4,0-9.12-9.46-9.12-24.62,0-34.08,9.67-10.04,25.73-10.04,35.4,0,9.12,9.46,9.12,24.62,0,34.08ZM170.26,54.81c.25-13.14,10.96-23.85,24.1-24.1,13.94-.26,25.29,11.09,25.03,25.03-.25,13.14-10.96,23.85-24.1,24.1-13.94.26-25.29-11.09-25.03-25.03Z"/>
  </g>
</svg>